# xmcd
#
# Track frame offsets: 
#        150
#        21043
#        57289
#        77182
#        113334
#        133134
#        152031
#        168516
#
# Disc length: 2867 seconds
#
# Revision: 0
# Processed by: cddbd v1.5.2PL0 Copyright (c) Steve Scherf et al.
# Submitted via: ExactAudioCopy v0.95b4
#
DISCID=5d0b3108
DTITLE=Boscoe - Boscoe
DYEAR=2008
DGENRE=Soul
TTITLE0=Introduction
TTITLE1=Writin' on the Wall
TTITLE2=He Keeps You
TTITLE3=We Ain't Free
TTITLE4=If I had my way
TTITLE5=I'm what you need
TTITLE6=Money Won't Save You
TTITLE7=Now and Den
EXTD=
EXTT0=
EXTT1=
EXTT2=
EXTT3=
EXTT4=
EXTT5=
EXTT6=
EXTT7=
PLAYORDER=
